<svg width="315" height="250" xmlns="http://www.w3.org/2000/svg" viewBox="0 0 315 250">
  <!-- Background -->
  <rect width="315" height="250" fill="#334455"/>
  <rect y="190" width="315" height="60" fill="#7b5a3c"/>

  <!-- Title -->
  <text x="157.5" y="45" font-family="monospace" font-size="28" fill="#FFFFFF" text-anchor="middle" font-weight="bold">Don't Jump on the Bed!</text>

  <!-- Bed -->
  <g transform="translate(80 150) scale(1.2)">
    <rect x="2" y="30" width="12" height="20" fill="#8B4513"/>
    <rect x="86" y="30" width="12" height="20" fill="#8B4513"/>
    <rect x="0" y="-10" width="10" height="50" fill="#5C3317"/>
    <rect x="90" y="5" width="10" height="35" fill="#5C3317"/>
    <rect x="0" y="26" width="100" height="4" fill="#6B3A1F"/>
    <rect x="10" y="0" width="80" height="30" fill="#EEEECC"/>
    <rect x="10" y="0" width="80" height="21" fill="#CC3333"/>
    <rect x="10" y="7" width="80" height="7" fill="#FF6644"/>
    <rect x="68" y="2" width="20" height="15" fill="#FFFFEE"/>
  </g>

  <!-- Boy -->
  <g transform="translate(140 70) scale(5)">
    <rect x="5" y="1" width="6" height="2" fill="#000000"/>
    <rect x="5" y="3" width="6" height="3" fill="#ffcc88"/>
    <rect x="6" y="4" width="1" height="1" fill="#000000"/>
    <rect x="9" y="4" width="1" height="1" fill="#000000"/>
    <rect x="6" y="6" width="5" height="5" fill="#3366cc"/>
    <rect x="5" y="7" width="7" height="1" fill="#3366cc"/>
    <rect x="6" y="11" width="5" height="1" fill="#cc3333"/>
    <rect x="4" y="12" width="2" height="2" fill="#cc3333"/>
    <rect x="10" y="12" width="2" height="2" fill="#cc3333"/>
    <rect x="4" y="14" width="2" height="1" fill="#000000"/>
    <rect x="10" y="14" width="2" height="1" fill="#000000"/>
  </g>
</svg>